<?xml version="1.0" standalone="no"?>
<!DOCTYPE svg PUBLIC "-//W3C//DTD SVG 20010904//EN"
 "http://www.w3.org/TR/2001/REC-SVG-20010904/DTD/svg10.dtd">
<svg version="1.0" xmlns="http://www.w3.org/2000/svg"
 width="1280.000000pt" height="1280.000000pt" viewBox="0 0 1280.000000 1280.000000"
 preserveAspectRatio="xMidYMid meet">

<g transform="translate(0.000000,1280.000000) scale(0.100000,-0.100000)"
fill="#000000" stroke="none">
<path d="M2504 7442 c-34 -44 -172 -226 -309 -407 -71 -93 -175 -231 -232
-306 -57 -75 -103 -139 -103 -142 0 -4 559 -8 1243 -10 1129 -3 1248 -5 1312
-20 355 -87 605 -291 701 -574 38 -112 45 -294 16 -410 -29 -114 -58 -175
-124 -264 -100 -136 -252 -242 -435 -304 -185 -62 -225 -65 -977 -65 l-676 0
-2 623 -3 622 -527 3 -528 2 0 -1065 0 -1065 1238 0 c1325 0 1338 0 1587 51
280 57 396 97 560 193 234 137 302 185 440 315 205 193 353 423 440 686 50
152 68 273 69 472 1 108 5 173 11 173 6 0 37 -26 71 -58 33 -31 94 -86 134
-122 41 -36 97 -86 125 -112 28 -26 62 -56 75 -68 57 -49 174 -154 324 -290
88 -79 177 -160 199 -180 22 -19 113 -100 202 -180 88 -80 246 -221 350 -315
105 -93 195 -174 201 -180 85 -78 218 -198 343 -308 212 -188 313 -237 481
-237 285 1 490 156 562 424 17 65 18 124 17 930 -1 474 -3 853 -6 844 -4 -17
-34 -18 -448 -18 -345 0 -444 -3 -448 -12 -4 -10 -6 -10 -6 0 -1 6 -7 12 -14
12 -22 0 -37 -183 -37 -452 0 -137 -3 -248 -6 -248 -6 0 -118 99 -529 470
-1137 1025 -1637 1467 -1698 1504 -113 67 -153 73 -532 86 -631 20 -1356 30
-2200 29 l-840 0 -21 -27z"/>
<path d="M1910 3480 l0 -160 45 0 c25 0 44 3 44 8 -1 4 -1 58 0 120 l1 112 73
0 c78 0 97 -9 97 -47 0 -30 -28 -43 -94 -43 l-56 0 0 -35 0 -35 75 0 c87 0
127 16 150 60 32 62 9 141 -50 166 -24 10 -74 14 -160 14 l-125 0 0 -160z"/>
<path d="M2330 3480 l0 -160 45 0 45 0 0 160 0 160 -45 0 -45 0 0 -160z"/>
<path d="M2580 3580 l0 -60 -65 0 -65 0 0 -40 0 -40 65 0 65 0 0 -60 0 -60 45
0 45 0 0 160 0 160 -45 0 -45 0 0 -60z"/>
<path d="M2833 3620 c-114 -51 -118 -216 -8 -277 31 -18 56 -23 116 -23 129 0
199 56 199 160 0 102 -70 160 -194 160 -48 0 -85 -7 -113 -20z m193 -83 c20
-17 27 -33 27 -57 0 -51 -39 -80 -108 -80 -29 0 -61 3 -70 6 -25 10 -47 62
-40 95 9 42 40 59 107 59 45 0 62 -5 84 -23z"/>
<path d="M3220 3620 c-6 -12 -9 -74 -8 -157 l3 -138 43 -3 42 -3 0 103 0 103
103 -103 c86 -86 107 -102 134 -102 19 0 33 6 37 16 3 9 6 81 6 160 l0 144
-45 0 -45 0 0 -92 0 -93 -93 93 c-83 83 -96 92 -129 92 -27 0 -40 -6 -48 -20z"/>
<path d="M3660 3480 l0 -160 160 0 160 0 0 40 0 40 -115 0 -115 0 0 80 0 80
115 0 115 0 0 40 0 40 -160 0 -160 0 0 -160z"/>
<path d="M4246 3619 c-21 -16 -26 -29 -26 -63 0 -23 5 -47 11 -53 8 -8 7 -17
-5 -34 -9 -13 -16 -40 -16 -60 0 -29 7 -43 31 -63 29 -25 36 -26 155 -26 l124
0 0 40 c0 33 -3 40 -20 40 -14 0 -20 7 -20 21 0 12 8 23 20 26 14 4 20 14 20
34 l0 29 -97 0 c-103 0 -130 8 -120 34 5 11 19 16 52 16 l45 0 0 40 0 40 -64
0 c-49 0 -69 -5 -90 -21z m164 -194 c0 -24 -3 -25 -55 -25 -47 0 -55 3 -55 18
0 28 9 32 62 32 45 0 48 -2 48 -25z"/>
<path d="M4760 3480 l0 -160 145 0 c138 0 145 1 146 20 1 11 2 28 3 38 1 15
-11 17 -101 20 l-103 3 0 119 0 120 -45 0 -45 0 0 -160z"/>
<path d="M5294 3632 c-8 -5 -111 -179 -181 -304 -2 -5 18 -8 46 -8 l50 0 56
105 c31 58 60 105 63 105 7 0 52 -74 52 -84 0 -3 -17 -6 -37 -8 -30 -2 -41 -9
-56 -35 l-19 -33 76 0 c70 0 77 -2 92 -25 13 -20 24 -25 60 -25 24 0 44 3 44
7 0 10 -151 275 -168 296 -15 17 -58 23 -78 9z"/>
<path d="M5610 3480 l0 -160 45 0 45 0 0 120 0 120 73 0 c78 0 97 -9 97 -47 0
-30 -28 -43 -94 -43 l-56 0 0 -35 0 -35 75 0 c87 0 127 16 150 60 32 62 9 141
-50 166 -24 10 -74 14 -160 14 l-125 0 0 -160z"/>
<path d="M6010 3600 l0 -40 60 0 60 0 0 -120 0 -120 45 0 45 0 0 120 0 120 60
0 60 0 0 40 0 40 -165 0 -165 0 0 -40z"/>
<path d="M6470 3618 c-111 -57 -114 -213 -4 -275 30 -18 55 -23 113 -23 130 0
201 54 201 155 0 61 -21 104 -67 135 -30 21 -51 26 -117 28 -69 3 -88 0 -126
-20z m196 -81 c63 -55 18 -137 -76 -137 -66 0 -95 13 -109 49 -16 38 -3 81 30
98 13 7 47 13 76 13 40 0 58 -5 79 -23z"/>
<path d="M6850 3480 l0 -160 45 0 45 0 0 120 0 120 80 0 c77 0 81 -1 92 -26
18 -39 -16 -64 -88 -64 l-54 0 0 -36 0 -36 84 3 c73 4 88 7 110 28 39 37 52
88 33 134 -27 65 -62 77 -214 77 l-133 0 0 -160z"/>
<path d="M3803 3512 c-18 -3 -23 -10 -23 -33 l0 -29 100 0 100 0 0 30 c0 24
-4 30 -22 31 -13 0 -48 1 -78 2 -30 1 -65 1 -77 -1z"/>
</g>
</svg>
